<?xml version="1.0" standalone="no"?>
<!DOCTYPE svg PUBLIC "-//W3C//DTD SVG 20010904//EN"
 "http://www.w3.org/TR/2001/REC-SVG-20010904/DTD/svg10.dtd">
<svg version="1.0" xmlns="http://www.w3.org/2000/svg"
 width="800.000000pt" height="800.000000pt" viewBox="0 0 800.000000 800.000000"
 preserveAspectRatio="xMidYMid meet">
<metadata>
Created by potrace 1.14, written by Peter Selinger 2001-2017
</metadata>
<g transform="translate(0.000000,800.000000) scale(0.100000,-0.100000)"
fill="#000000" stroke="none">
<path d="M3995 7583 c-11 -2 -171 -33 -355 -69 -184 -36 -508 -99 -720 -140
-212 -41 -545 -106 -740 -144 -1340 -261 -1233 -238 -1257 -268 -41 -51 -115
-181 -142 -249 -25 -64 -26 -77 -25 -238 1 -181 14 -261 56 -337 20 -34 100
-96 280 -216 29 -19 46 -37 42 -44 -5 -7 -3 -8 5 -3 8 4 101 -52 247 -151 129
-86 234 -159 234 -162 0 -2 -7 -2 -15 2 -22 8 -18 -2 6 -15 15 -8 19 -8 15 0
-4 6 -3 11 3 11 5 0 13 -5 16 -11 4 -5 76 -56 161 -113 85 -56 151 -106 146
-111 -4 -4 -2 -5 4 -2 10 6 206 -124 1052 -696 185 -126 460 -311 610 -413
150 -101 280 -184 289 -184 17 0 454 111 533 135 61 19 1357 360 1710 449 494
126 1294 338 1312 347 9 5 19 18 23 29 8 24 -22 90 -44 97 -21 8 -86 37 -180
80 -40 18 -76 31 -79 29 -3 -3 0 -29 6 -58 6 -29 7 -56 4 -60 -4 -3 -61 -20
-127 -38 -1145 -303 -3038 -790 -3073 -790 -4 0 -21 48 -36 108 -37 139 -45
275 -21 358 18 64 116 259 143 285 10 10 120 41 277 78 143 33 442 104 665
156 223 53 574 136 780 185 206 49 508 120 670 159 162 38 441 104 620 146
348 82 360 87 360 146 0 54 -21 79 -100 119 -61 31 -2239 1077 -2685 1290 -66
32 -239 114 -383 184 -145 69 -264 125 -265 125 -1 -1 -11 -3 -22 -6z"/>
<path d="M968 5763 c7 -3 16 -2 19 1 4 3 -2 6 -13 5 -11 0 -14 -3 -6 -6z"/>
<path d="M832 5570 c0 -14 2 -19 5 -12 2 6 2 18 0 25 -3 6 -5 1 -5 -13z"/>
<path d="M619 5533 c-111 -17 -219 -265 -221 -503 -1 -127 28 -249 87 -372
l23 -48 -20 -72 c-43 -157 -32 -435 22 -553 10 -22 74 -107 144 -188 120 -141
125 -148 108 -166 -9 -10 -25 -32 -34 -49 -27 -51 -56 -59 -140 -39 l-71 18
-30 -28 c-107 -101 -172 -355 -147 -579 12 -118 40 -219 70 -257 11 -14 93
-76 182 -138 90 -62 489 -340 888 -618 1892 -1318 2169 -1510 2188 -1520 11
-6 30 -11 40 -11 11 0 112 38 223 84 741 306 2322 958 2564 1058 165 68 298
128 308 140 9 11 17 31 17 44 0 56 -29 87 -178 190 -81 56 -148 101 -149 100
-2 -1 4 -37 12 -80 8 -43 15 -101 15 -129 l0 -52 -148 -59 c-698 -279 -1927
-783 -2404 -985 -92 -39 -172 -71 -177 -71 -25 0 -72 183 -92 358 -14 118 1
247 35 314 l21 43 76 0 c79 0 85 2 144 56 20 19 105 54 265 112 338 122 784
292 1310 500 118 47 440 173 714 281 275 109 505 205 512 214 18 24 17 63 -2
91 -11 15 -123 75 -302 162 -156 77 -287 139 -289 139 -2 0 -17 -28 -33 -62
-41 -88 -57 -198 -42 -291 7 -39 13 -81 15 -91 2 -23 64 -8 -1018 -250 -1819
-408 -2319 -517 -2342 -511 -35 8 -117 94 -146 151 -35 70 -48 134 -48 233 0
131 35 223 117 304 37 37 39 37 95 31 73 -8 100 -1 143 36 30 26 48 33 145 47
l110 17 160 -122 160 -122 238 69 c131 38 519 150 863 250 344 100 733 213
865 251 212 61 277 75 553 119 172 27 319 54 328 62 10 8 14 24 12 46 -4 31
-1 34 31 43 20 5 142 40 271 78 202 59 237 73 249 94 13 23 11 59 -6 84 -5 6
-79 54 -165 107 l-157 96 -3 -115 -3 -116 -410 -110 c-674 -179 -1741 -471
-2335 -637 l-285 -80 -19 22 c-27 31 -72 132 -92 202 -25 93 -31 307 -9 381
19 66 59 145 85 169 10 9 170 50 376 96 197 44 362 84 366 88 5 4 -8 13 -27
20 -21 7 -33 17 -29 23 4 6 2 8 -4 4 -14 -9 -103 35 -95 47 3 6 1 7 -5 3 -13
-8 -83 24 -76 36 3 4 -2 5 -10 2 -18 -7 -99 34 -91 46 3 5 -1 7 -9 4 -20 -8
-1118 545 -1110 558 4 7 2 8 -5 4 -7 -5 -129 51 -289 132 -152 77 -606 304
-1008 505 -727 364 -731 366 -747 404 -21 52 -37 145 -37 210 l0 53 -32 -1
c-18 -1 -45 -4 -59 -6z m8 -1115 c-3 -8 -6 -5 -6 6 -1 11 2 17 5 13 3 -3 4
-12 1 -19z m152 -65 c2 -1 -6 -1 -17 0 -12 0 -19 3 -17 6 3 2 -1 11 -7 20 -8
10 -3 8 12 -4 14 -11 27 -21 29 -22z m146 -112 c3 -5 1 -13 -5 -16 -6 -4 -9
-1 -8 7 2 7 -4 13 -13 12 -9 -1 -16 5 -16 12 0 14 30 3 42 -15z m-318 -33 c-3
-8 -6 -5 -6 6 -1 11 2 17 5 13 3 -3 4 -12 1 -19z m403 -34 c0 -3 -11 3 -25 12
-13 8 -29 13 -34 10 -5 -4 -13 -1 -17 5 -5 8 -3 9 6 4 10 -6 12 -4 7 9 -5 12
3 10 28 -10 19 -14 35 -28 35 -30z m-393 -26 c-3 -7 -5 -2 -5 12 0 14 2 19 5
13 2 -7 2 -19 0 -25z m520 -82 c0 -9 -4 -13 -9 -10 -5 3 -6 10 -3 15 4 5 -5
14 -19 20 -14 7 -27 18 -30 26 -3 7 9 2 28 -12 18 -13 33 -31 33 -39z m34 -13
c13 -16 12 -17 -3 -4 -10 7 -18 15 -18 17 0 8 8 3 21 -13z m-476 -31 c5 -13 3
-14 -6 -5 -6 6 -18 9 -25 6 -8 -3 -14 -1 -14 4 0 16 38 12 45 -5z m-7 -37 c-3
-3 -9 2 -12 12 -6 14 -5 15 5 6 7 -7 10 -15 7 -18z m612 -33 c0 -3 -5 -1 -11
5 -7 7 -20 8 -34 3 -15 -6 -22 -5 -22 5 0 8 7 11 16 7 14 -5 14 -4 1 13 -12
16 -9 15 18 -4 17 -12 32 -25 32 -29z m124 -90 c3 -5 -1 -9 -9 -9 -8 0 -12 4
-9 9 3 4 7 8 9 8 2 0 6 -4 9 -8z m40 -47 c-4 -8 -11 -12 -17 -8 -8 5 -7 8 1
11 7 2 9 9 6 14 -4 7 -2 8 4 4 6 -4 9 -13 6 -21z m-626 3 c-2 -7 3 -13 10 -14
22 -3 23 -4 17 -15 -5 -7 -13 -4 -26 7 -10 9 -16 21 -13 25 8 13 14 11 12 -3z
m718 -71 c1 -8 -4 -14 -10 -14 -7 0 -12 11 -12 24 0 24 18 16 22 -10z m-649
-12 c0 -8 -4 -12 -9 -9 -5 3 -6 10 -3 15 9 13 12 11 12 -6z m684 -2 c7 -10 9
-15 5 -11 -5 4 -16 2 -25 -5 -14 -10 -14 -10 -4 4 7 9 10 19 6 22 -3 4 -4 7
-1 7 3 0 12 -8 19 -17z m79 -60 c0 -8 -38 17 -51 33 -9 11 -2 9 19 -6 17 -13
32 -25 32 -27z m33 -40 c-5 -12 -3 -14 7 -8 8 5 11 4 6 -3 -4 -6 -13 -9 -22
-5 -11 4 -12 9 -3 19 15 19 20 18 12 -3z m-705 -18 c-3 -3 -9 2 -12 12 -6 14
-5 15 5 6 7 -7 10 -15 7 -18z m758 -7 c12 -14 13 -18 3 -10 -9 6 -18 10 -21 7
-2 -3 -5 2 -5 10 0 19 0 19 23 -7z m-716 -30 c0 -6 -6 -5 -15 2 -8 7 -15 14
-15 16 0 2 7 1 15 -2 8 -4 15 -11 15 -16z m764 -7 c14 -15 15 -21 4 -27 -7 -4
-10 -4 -6 1 11 11 -12 36 -25 28 -6 -3 -7 -1 -3 5 9 15 10 15 30 -7z m-700
-64 c1 -8 8 -23 16 -33 8 -11 3 -9 -12 5 -15 13 -24 29 -21 37 6 17 13 13 17
-9z m777 -24 c13 -16 12 -17 -3 -4 -10 7 -18 15 -18 17 0 8 8 3 21 -13z m-721
-7 c0 -3 -4 -8 -10 -11 -5 -3 -10 -1 -10 4 0 6 5 11 10 11 6 0 10 -2 10 -4z
m705 -16 c-3 -5 -1 -10 6 -10 7 0 10 -3 6 -6 -9 -9 -28 6 -22 17 4 5 8 9 11 9
3 0 2 -4 -1 -10z m105 -74 c0 -6 -5 -4 -10 4 -5 8 -10 11 -10 7 0 -5 -5 -5
-10 -2 -6 4 -8 11 -4 16 7 12 34 -8 34 -25z m-720 -52 c0 -8 -19 -13 -24 -6
-3 5 1 9 9 9 8 0 15 -2 15 -3z m1024 -123 c-3 -3 -15 6 -27 18 l-22 24 27 -19
c14 -10 24 -21 22 -23z m26 -21 c0 -5 -2 -10 -4 -10 -3 0 -8 5 -11 10 -3 6 -1
10 4 10 6 0 11 -4 11 -10z m-107 -41 c5 -3 2 -9 -5 -12 -9 -3 -14 3 -15 15 -1
11 1 16 5 12 4 -5 11 -12 15 -15z m151 12 c4 -5 -3 -7 -14 -4 -23 6 -26 13 -6
13 8 0 17 -4 20 -9z m31 -57 c9 -15 12 -23 6 -20 -11 7 -35 46 -28 46 3 0 12
-12 22 -26z m-944 -1 c13 -16 12 -17 -3 -4 -10 7 -18 15 -18 17 0 8 8 3 21
-13z m994 -3 c10 -11 16 -20 13 -20 -3 0 -13 9 -23 20 -10 11 -16 20 -13 20 3
0 13 -9 23 -20z m-169 -22 l29 -32 -32 25 c-18 13 -32 27 -32 32 -1 12 4 8 35
-25z m-777 -12 c-3 -3 -11 5 -18 17 -13 21 -12 21 5 5 10 -10 16 -20 13 -22z
m1016 -24 c-3 -3 -11 0 -18 7 -9 10 -8 11 6 5 10 -3 15 -9 12 -12z m-980 -42
c10 -11 16 -20 13 -20 -3 0 -13 9 -23 20 -10 11 -16 20 -13 20 3 0 13 -9 23
-20z m45 -10 c0 -5 -2 -10 -4 -10 -3 0 -8 5 -11 10 -3 6 -1 10 4 10 6 0 11 -4
11 -10z m755 -10 c4 -6 10 -8 15 -5 5 3 11 2 14 -3 2 -4 -6 -8 -19 -8 -13 0
-21 4 -19 8 3 4 1 8 -5 8 -5 0 -13 -4 -16 -10 -3 -5 -11 -10 -18 -10 -6 0 -2
7 9 15 23 17 31 18 39 5z m205 -25 c5 3 11 1 14 -4 4 -5 -2 -8 -11 -7 -9 2
-18 8 -19 15 -1 6 0 7 3 1 2 -5 9 -8 13 -5z m-142 -8 c8 -10 6 -13 -7 -13 -11
0 -17 6 -14 13 3 7 6 13 8 13 1 0 7 -6 13 -13z m298 -39 l19 -21 -27 18 c-29
18 -34 25 -20 25 5 0 17 -10 28 -22z m-1076 -9 c0 -6 -4 -7 -10 -4 -5 3 -10
11 -10 16 0 6 5 7 10 4 6 -3 10 -11 10 -16z m954 5 c5 -14 4 -15 -9 -4 -17 14
-19 20 -6 20 5 0 12 -7 15 -16z m-120 -23 c-4 -3 -9 0 -11 7 -3 6 -10 9 -15 6
-7 -4 -8 -2 -4 5 6 9 11 9 22 0 8 -6 12 -15 8 -18z m178 -35 c7 4 8 2 4 -5
-10 -15 -26 -4 -25 17 1 15 2 15 6 -1 2 -9 9 -14 15 -11z m149 -3 c13 -16 12
-17 -3 -4 -10 7 -18 15 -18 17 0 8 8 3 21 -13z m-268 -16 c3 -8 -1 -14 -8 -14
-7 0 -11 6 -8 14 3 7 6 13 8 13 2 0 5 -6 8 -13z m307 -17 c0 -5 -5 -10 -11
-10 -5 0 -7 5 -4 10 3 6 8 10 11 10 2 0 4 -4 4 -10z m41 -27 c13 -17 13 -17
-6 -3 -11 8 -22 16 -24 17 -2 2 0 3 6 3 6 0 17 -8 24 -17z m-1125 -16 c3 -21
1 -21 -20 2 -17 19 -17 19 0 17 9 -2 18 -10 20 -19z m791 17 c-3 -4 -2 -16 4
-28 10 -20 9 -20 -5 -2 -14 17 -13 36 1 36 4 0 3 -3 0 -6z m374 -31 c13 -16
12 -17 -3 -4 -10 7 -18 15 -18 17 0 8 8 3 21 -13z m-16 -13 c3 -5 -1 -10 -10
-10 -9 0 -13 5 -10 10 3 6 8 10 10 10 2 0 7 -4 10 -10z m-1118 -7 c-4 -3 -1
-13 6 -22 11 -14 10 -14 -5 -2 -16 12 -16 31 -1 31 4 0 3 -3 0 -7z m963 -24
c15 -28 5 -23 -15 7 -9 15 -12 23 -6 20 6 -4 16 -16 21 -27z m-114 -1 c-2 -13
2 -30 8 -38 9 -13 9 -13 -6 -2 -9 7 -15 21 -13 30 1 9 -3 20 -9 24 -7 5 -4 8
6 8 13 0 17 -6 14 -22z m333 -14 c-13 -16 -39 -19 -39 -4 0 12 32 30 43 23 4
-3 3 -11 -4 -19z m71 -31 c0 -2 -5 -1 -10 2 -6 4 -19 1 -28 -7 -15 -11 -15
-11 -5 3 10 12 10 18 0 29 -6 7 0 5 16 -5 15 -9 27 -19 27 -22z m-1193 10 c7
-20 -16 -24 -26 -4 -9 16 -8 19 6 17 9 -2 19 -8 20 -13z m839 5 c3 -4 -1 -5
-10 -4 -8 1 -18 5 -22 8 -3 4 1 5 10 4 8 -1 18 -5 22 -8z m28 -26 c3 -5 -1 -9
-9 -9 -8 0 -12 4 -9 9 3 4 7 8 9 8 2 0 6 -4 9 -8z m259 1 c-7 -2 -19 -2 -25 0
-7 3 -2 5 12 5 14 0 19 -2 13 -5z m-1095 -38 c12 -14 18 -25 13 -25 -5 0 -16
11 -25 25 -9 14 -15 25 -13 25 2 0 13 -11 25 -25z m838 -30 c17 6 18 6 1 -5
-19 -12 -37 -6 -37 13 0 9 3 8 8 -1 5 -7 17 -10 28 -7z m85 -3 c-7 -2 -18 1
-23 6 -8 8 -4 9 13 5 13 -4 18 -8 10 -11z m-845 -29 c-3 -4 -6 -1 -6 6 0 8 -8
10 -22 6 -23 -7 -23 -7 -3 8 18 14 21 14 28 0 5 -8 6 -17 3 -20z m724 1 c0 0
-10 -9 -22 -20 -22 -19 -22 -19 -8 0 14 18 13 19 -3 13 -10 -4 -16 -3 -12 2 4
8 45 12 45 5z m-694 -59 c-2 -7 1 -18 7 -25 9 -10 9 -11 0 -6 -7 4 -17 15 -22
25 -8 13 -6 18 5 18 8 0 13 -6 10 -12z m594 -61 c0 -8 -19 -13 -24 -6 -3 5 1
9 9 9 8 0 15 -2 15 -3z m-490 -79 c14 -19 14 -19 -2 -6 -10 7 -18 18 -18 24 0
6 1 8 3 6 1 -2 9 -13 17 -24z m422 -57 c-2 -10 -6 -18 -7 -18 -1 0 -5 8 -7 18
-3 11 0 19 7 19 7 0 10 -8 7 -19z m-328 -49 c-2 -4 2 -9 8 -12 7 -2 10 -7 7
-11 -3 -3 -13 2 -22 12 -14 15 -15 19 -2 19 8 0 12 -4 9 -8z m313 -11 c-3 -8
-6 -5 -6 6 -1 11 2 17 5 13 3 -3 4 -12 1 -19z m-10 -50 c-3 -7 -5 -2 -5 12 0
14 2 19 5 13 2 -7 2 -19 0 -25z m-226 -30 c16 -18 29 -36 29 -41 0 -5 6 -7 14
-4 8 3 20 -1 27 -9 10 -12 9 -13 -6 -8 -13 5 -16 4 -11 -4 17 -27 -5 -8 -49
43 -50 59 -54 77 -4 23z m216 -85 c-3 -10 -5 -4 -5 12 0 17 2 24 5 18 2 -7 2
-21 0 -30z m-130 -20 c0 -9 -4 -10 -14 -2 -7 6 -13 12 -13 14 0 1 6 2 13 2 8
0 14 -6 14 -14z m38 -49 c9 -15 12 -23 6 -20 -11 7 -35 46 -28 46 3 0 12 -12
22 -26z m102 -26 c-3 -8 -6 -5 -6 6 -1 11 2 17 5 13 3 -3 4 -12 1 -19z m-57
-29 c0 -6 -4 -7 -10 -4 -5 3 -10 11 -10 16 0 6 5 7 10 4 6 -3 10 -11 10 -16z
m74 -24 c3 -8 1 -15 -4 -15 -6 0 -10 7 -10 15 0 8 2 15 4 15 2 0 6 -7 10 -15z
m50 -122 c9 -18 14 -33 12 -33 -6 0 -36 55 -36 66 0 11 5 3 24 -33z"/>
<path d="M2910 2700 c-9 -6 -10 -10 -3 -10 6 0 15 5 18 10 8 12 4 12 -15 0z"/>
<path d="M7128 4833 c7 -3 16 -2 19 1 4 3 -2 6 -13 5 -11 0 -14 -3 -6 -6z"/>
<path d="M6208 4513 c6 -2 18 -2 25 0 6 3 1 5 -13 5 -14 0 -19 -2 -12 -5z"/>
<path d="M5950 4420 c-8 -5 -10 -10 -5 -10 6 0 17 5 25 10 8 5 11 10 5 10 -5
0 -17 -5 -25 -10z"/>
<path d="M2807 4369 c7 -7 15 -10 18 -7 3 3 -2 9 -12 12 -14 6 -15 5 -6 -5z"/>
<path d="M4450 4140 c8 -5 20 -10 25 -10 6 0 3 5 -5 10 -8 5 -19 10 -25 10 -5
0 -3 -5 5 -10z"/>
<path d="M6775 4091 c-82 -32 -163 -63 -180 -69 -59 -21 3 -12 155 24 112 26
160 42 173 56 17 21 23 48 10 48 -5 0 -75 -27 -158 -59z"/>
<path d="M6235 4060 c3 -5 8 -10 11 -10 2 0 4 5 4 10 0 6 -5 10 -11 10 -5 0
-7 -4 -4 -10z"/>
<path d="M4512 3830 c0 -14 2 -19 5 -12 2 6 2 18 0 25 -3 6 -5 1 -5 -13z"/>
<path d="M4652 3790 c0 -14 2 -19 5 -12 2 6 2 18 0 25 -3 6 -5 1 -5 -13z"/>
<path d="M5995 3800 c-3 -6 1 -7 9 -4 18 7 21 14 7 14 -6 0 -13 -4 -16 -10z"/>
<path d="M5435 3780 c-3 -6 1 -7 9 -4 18 7 21 14 7 14 -6 0 -13 -4 -16 -10z"/>
<path d="M4511 3694 c0 -11 3 -14 6 -6 3 7 2 16 -1 19 -3 4 -6 -2 -5 -13z"/>
<path d="M5593 3650 c-34 -14 -28 -21 7 -9 17 6 30 13 30 15 0 6 -12 4 -37 -6z"/>
<path d="M4948 3603 c7 -3 16 -2 19 1 4 3 -2 6 -13 5 -11 0 -14 -3 -6 -6z"/>
<path d="M4749 3587 c6 -8 7 -18 3 -22 -4 -5 -1 -5 6 -1 10 6 10 11 1 22 -6 8
-14 14 -16 14 -3 0 0 -6 6 -13z"/>
<path d="M5440 3590 c-8 -5 -10 -10 -5 -10 6 0 17 5 25 10 8 5 11 10 5 10 -5
0 -17 -5 -25 -10z"/>
<path d="M4876 3581 c-4 -5 3 -7 14 -4 23 6 26 13 6 13 -8 0 -17 -4 -20 -9z"/>
<path d="M5315 3540 c-3 -6 1 -7 9 -4 18 7 21 14 7 14 -6 0 -13 -4 -16 -10z"/>
<path d="M5230 3510 c-8 -5 -10 -10 -5 -10 6 0 17 5 25 10 8 5 11 10 5 10 -5
0 -17 -5 -25 -10z"/>
<path d="M4850 3400 c8 -5 20 -10 25 -10 6 0 3 5 -5 10 -8 5 -19 10 -25 10 -5
0 -3 -5 5 -10z"/>
<path d="M4766 3343 c-6 -14 -5 -15 5 -6 7 7 10 15 7 18 -3 3 -9 -2 -12 -12z"/>
<path d="M4705 3320 c-13 -6 -15 -9 -5 -9 8 0 22 4 30 9 18 12 2 12 -25 0z"/>
</g>
</svg>
